<svg viewBox="0 0 800 600" xmlns="http://www.w3.org/2000/svg">
  <!-- F Letter -->
  <defs>
    <linearGradient id="blueGradient" x1="0%" y1="0%" x2="100%" y2="100%">
      <stop offset="0%" style="stop-color:#1E40AF;stop-opacity:1" />
      <stop offset="100%" style="stop-color:#3B82F6;stop-opacity:1" />
    </linearGradient>
    <linearGradient id="silverGradient" x1="0%" y1="0%" x2="100%" y2="100%">
      <stop offset="0%" style="stop-color:#E5E7EB;stop-opacity:1" />
      <stop offset="50%" style="stop-color:#9CA3AF;stop-opacity:1" />
      <stop offset="100%" style="stop-color:#6B7280;stop-opacity:1" />
    </linearGradient>
  </defs>
  
  <!-- F Letter -->
  <path d="M50 150 L50 450 L80 450 L80 320 L200 320 L200 290 L80 290 L80 180 L220 180 L220 150 Z" 
        fill="url(#blueGradient)" 
        stroke="#1E40AF" 
        stroke-width="2"/>
  
  <!-- Dollar Sign -->
  <g transform="translate(280, 200)">
    <!-- Outer ring -->
    <circle cx="100" cy="100" r="90" fill="none" stroke="url(#silverGradient)" stroke-width="8"/>
    
    <!-- Dollar sign -->
    <path d="M100 30 L100 170 M70 60 Q70 45 85 45 L115 45 Q130 45 130 60 Q130 75 115 75 L85 75 Q70 75 70 90 Q70 105 85 105 L115 105 Q130 105 130 120 Q130 135 115 135 L85 135 Q70 135 70 150" 
          fill="none" 
          stroke="url(#silverGradient)" 
          stroke-width="12" 
          stroke-linecap="round"/>
  </g>
  
  <!-- S Letter -->
  <path d="M500 200 Q500 180 520 180 L580 180 Q600 180 600 200 Q600 220 580 220 L540 220 Q520 220 520 240 Q520 260 540 260 L580 260 Q600 260 600 280 Q600 300 580 300 L520 300 Q500 300 500 320 Q500 340 520 340 L580 340 Q600 340 600 360 Q600 380 580 380 L520 380 Q500 380 500 400" 
        fill="url(#silverGradient)" 
        stroke="#6B7280" 
        stroke-width="2"/>
</svg>
